<svg width="26" height="26" viewBox="0 0 26 26" fill="none" xmlns="http://www.w3.org/2000/svg">
<path d="M23.7656 5.4925C23.3127 5.03802 22.7746 4.67741 22.182 4.43136C21.5894 4.18531 20.9541 4.05865 20.3125 4.05865C19.6709 4.05865 19.0356 4.18531 18.443 4.43136C17.8505 4.67741 17.3123 5.03802 16.8594 5.4925L18.0131 6.64625C18.3156 6.34376 18.6747 6.10381 19.07 5.9401C19.4652 5.77639 19.8888 5.69213 20.3166 5.69213C20.7444 5.69213 21.168 5.77639 21.5632 5.9401C21.9584 6.10381 22.3175 6.34376 22.62 6.64625C22.9225 6.94874 23.1624 7.30785 23.3262 7.70307C23.4899 8.0983 23.5741 8.5219 23.5741 8.94969C23.5741 9.37747 23.4899 9.80107 23.3262 10.1963C23.1624 10.5915 22.9225 10.9506 22.62 11.2531L16.12 17.7531C15.5102 18.364 14.6826 18.7077 13.8194 18.7084C12.9562 18.7092 12.1281 18.367 11.5172 17.7572C10.9063 17.1474 10.5627 16.3198 10.5619 15.4566C10.5611 14.5934 10.9033 13.7653 11.5131 13.1544L12.6588 12.0006L11.5131 10.8469L10.3594 12.0006C9.9049 12.4535 9.5443 12.9917 9.29825 13.5843C9.05219 14.1768 8.92554 14.8121 8.92554 15.4537C8.92554 16.0954 9.05219 16.7307 9.29825 17.3232C9.5443 17.9158 9.9049 18.454 10.3594 18.9069C11.2787 19.8144 12.5207 20.32 13.8125 20.3125C14.4566 20.3151 15.0948 20.1901 15.6903 19.9447C16.2858 19.6992 16.8267 19.3382 17.2819 18.8825L23.7819 12.3825C24.6927 11.4663 25.2025 10.226 25.1995 8.93414C25.1964 7.64226 24.6807 6.40441 23.7656 5.4925Z" fill="#454545"/>
<path d="M3.40435 20.1663C3.10096 19.8643 2.86021 19.5054 2.69593 19.1101C2.53166 18.7148 2.44709 18.2909 2.44709 17.8629C2.44709 17.4348 2.53166 17.0109 2.69593 16.6157C2.86021 16.2204 3.10096 15.8614 3.40435 15.5594L9.90435 9.05943C10.2063 8.75604 10.5653 8.51529 10.9606 8.35101C11.3559 8.18674 11.7797 8.10217 12.2078 8.10217C12.6359 8.10217 13.0597 8.18674 13.455 8.35101C13.8503 8.51529 14.2092 8.75604 14.5112 9.05943C14.8127 9.36379 15.05 9.72557 15.2091 10.1233C15.3682 10.5211 15.4459 10.9467 15.4375 11.3751C15.44 11.8047 15.3572 12.2306 15.194 12.6281C15.0309 13.0255 14.7905 13.3867 14.4868 13.6907L12.7643 15.4376L13.9181 16.5913L15.6406 14.8688C16.5575 13.9519 17.0726 12.7083 17.0726 11.4116C17.0726 10.1149 16.5575 8.87133 15.6406 7.95443C14.7237 7.03753 13.4801 6.52242 12.1834 6.52242C10.8867 6.52242 9.64313 7.03753 8.72622 7.95443L2.22623 14.4544C1.77052 14.9075 1.40889 15.4462 1.16211 16.0395C0.91534 16.6328 0.7883 17.269 0.7883 17.9116C0.7883 18.5542 0.91534 19.1905 1.16211 19.7838C1.40889 20.3771 1.77052 20.9158 2.22623 21.3688C3.15152 22.2694 4.39633 22.7662 5.68747 22.7501C6.99 22.7513 8.24012 22.2372 9.16497 21.3201L8.01122 20.1663C7.70924 20.4697 7.35029 20.7104 6.955 20.8747C6.55971 21.039 6.13586 21.1236 5.70779 21.1236C5.27972 21.1236 4.85587 21.039 4.46057 20.8747C4.06528 20.7104 3.70634 20.4697 3.40435 20.1663Z" fill="#454545"/>
</svg>
