<svg width="161" height="20" viewBox="0 0 161 20" fill="none" xmlns="http://www.w3.org/2000/svg">
<path d="M0.666992 12.3594H1.48486C1.68831 12.7581 1.94059 13.1895 2.2417 13.6533C2.54281 14.109 2.89681 14.5648 3.30371 15.0205C3.71061 15.4762 4.17448 15.9157 4.69531 16.3389C5.21615 16.7539 5.79801 17.1201 6.44092 17.4375C7.08382 17.7549 7.79183 18.0112 8.56494 18.2065C9.33805 18.3937 10.1844 18.4873 11.104 18.4873C11.3726 18.4873 11.6737 18.4751 12.0073 18.4507C12.341 18.4181 12.6543 18.3571 12.9473 18.2676C13.2402 18.1699 13.4844 18.0356 13.6797 17.8647C13.8831 17.6857 13.9849 17.4497 13.9849 17.1567C13.9849 16.8475 13.8547 16.5749 13.5942 16.3389C13.342 16.0947 12.9554 15.8628 12.4346 15.6431C11.9137 15.4152 11.2546 15.1873 10.457 14.9595C9.66764 14.7316 8.73584 14.4753 7.66162 14.1904C5.26904 13.5719 3.49495 12.7093 2.33936 11.6025C1.19189 10.4876 0.618164 9.12858 0.618164 7.52539C0.618164 6.52441 0.821615 5.6333 1.22852 4.85205C1.64355 4.0708 2.20508 3.41569 2.91309 2.88672C3.62923 2.34961 4.46338 1.94271 5.41553 1.66602C6.37581 1.38118 7.39714 1.23877 8.47949 1.23877C9.03288 1.23877 9.61068 1.2876 10.2129 1.38525C10.8232 1.48291 11.4173 1.61719 11.9951 1.78809C12.5729 1.95898 13.1182 2.1665 13.6309 2.41064C14.1436 2.64665 14.5911 2.90706 14.9736 3.19189L16.8169 1.40967H17.6592V6.71973H16.8901C16.5321 6.07682 16.0723 5.47868 15.5107 4.92529C14.9492 4.37191 14.3063 3.89176 13.582 3.48486C12.8577 3.07796 12.0562 2.75651 11.1772 2.52051C10.2983 2.28451 9.36654 2.1665 8.38184 2.1665C8.19466 2.1665 7.95459 2.17464 7.66162 2.19092C7.36865 2.19906 7.07975 2.23975 6.79492 2.31299C6.51823 2.38623 6.27816 2.50423 6.07471 2.66699C5.87126 2.82161 5.76953 3.04134 5.76953 3.32617C5.76953 3.79004 6.18864 4.23763 7.02686 4.66895C7.87321 5.09212 9.13053 5.52344 10.7988 5.96289C11.5068 6.15007 12.1904 6.34945 12.8496 6.56104C13.5088 6.76449 14.1232 7.00049 14.6929 7.26904C15.2707 7.52946 15.7915 7.83057 16.2554 8.17236C16.7274 8.50602 17.1302 8.90072 17.4639 9.35645C17.7975 9.81217 18.0539 10.333 18.2329 10.9189C18.4201 11.5049 18.5137 12.1803 18.5137 12.9453C18.5137 13.8324 18.3509 14.6706 18.0254 15.46C17.6999 16.2493 17.2116 16.9411 16.5605 17.5352C15.9176 18.1292 15.116 18.6012 14.1558 18.9512C13.1955 19.293 12.0846 19.4639 10.8232 19.4639C10.1315 19.4639 9.48047 19.411 8.87012 19.3052C8.25977 19.1994 7.66569 19.0407 7.08789 18.8291C6.51823 18.6175 5.95264 18.353 5.39111 18.0356C4.82959 17.7101 4.25179 17.3317 3.65771 16.9004L1.58252 19.2319H0.666992V12.3594ZM21.0039 18.1211H23.1401V1.42188H21.0039V0.542969H30.4033V6.97607C30.6637 6.65869 30.9771 6.37386 31.3433 6.12158C31.7176 5.8693 32.1286 5.65771 32.5762 5.48682C33.0238 5.30778 33.4998 5.1735 34.0044 5.08398C34.5171 4.99447 35.042 4.94971 35.5791 4.94971C36.6859 4.94971 37.5973 5.09619 38.3135 5.38916C39.0378 5.67399 39.6074 6.08496 40.0225 6.62207C40.4375 7.15104 40.7264 7.79801 40.8892 8.56299C41.0519 9.31982 41.1333 10.1662 41.1333 11.1021V18.1211H43.2695V19H32.6494V18.1211H33.8701V11.1021C33.8701 10.2638 33.8457 9.58024 33.7969 9.05127C33.748 8.51416 33.6626 8.09505 33.5405 7.79395C33.4185 7.4847 33.2557 7.27311 33.0522 7.15918C32.8488 7.03711 32.5924 6.97607 32.2832 6.97607C31.974 6.97607 31.7013 7.04118 31.4653 7.17139C31.2293 7.3016 31.0299 7.4847 30.8672 7.7207C30.7126 7.95671 30.5946 8.23747 30.5132 8.56299C30.4399 8.88851 30.4033 9.24251 30.4033 9.625V18.1211H31.6118V19H21.0039V18.1211ZM44.771 12.2129C44.771 11.1631 44.9622 10.1947 45.3447 9.30762C45.7272 8.42057 46.3009 7.6556 47.0659 7.0127C47.8309 6.36165 48.7912 5.8571 49.9468 5.49902C51.1024 5.13281 52.4533 4.94971 53.9995 4.94971C55.5457 4.94971 56.8926 5.13281 58.04 5.49902C59.1956 5.8571 60.1559 6.36165 60.9209 7.0127C61.6859 7.6556 62.2596 8.42057 62.6421 9.30762C63.0246 10.1947 63.2158 11.1631 63.2158 12.2129C63.2158 13.2627 63.0246 14.2311 62.6421 15.1182C62.2596 15.9971 61.6859 16.762 60.9209 17.4131C60.1559 18.056 59.1956 18.5605 58.04 18.9268C56.8926 19.2848 55.5457 19.4639 53.9995 19.4639C52.4533 19.4639 51.1024 19.2848 49.9468 18.9268C48.7912 18.5605 47.8309 18.056 47.0659 17.4131C46.3009 16.762 45.7272 15.9971 45.3447 15.1182C44.9622 14.2311 44.771 13.2627 44.771 12.2129ZM53.9995 18.707C54.3088 18.707 54.5732 18.6053 54.793 18.4019C55.0127 18.1984 55.1917 17.8485 55.3301 17.3521C55.4684 16.8556 55.5661 16.1924 55.623 15.3623C55.6882 14.5241 55.7207 13.4743 55.7207 12.2129C55.7207 10.9434 55.6882 9.89355 55.623 9.06348C55.5661 8.22526 55.4684 7.55794 55.3301 7.06152C55.1917 6.5651 55.0127 6.21517 54.793 6.01172C54.5732 5.80827 54.3088 5.70654 53.9995 5.70654C53.6821 5.70654 53.4136 5.80827 53.1938 6.01172C52.9741 6.21517 52.7951 6.5651 52.6567 7.06152C52.5184 7.55794 52.4167 8.22526 52.3516 9.06348C52.2946 9.89355 52.2661 10.9434 52.2661 12.2129C52.2661 13.4743 52.2946 14.5241 52.3516 15.3623C52.4167 16.1924 52.5184 16.8556 52.6567 17.3521C52.7951 17.8485 52.9741 18.1984 53.1938 18.4019C53.4136 18.6053 53.6821 18.707 53.9995 18.707ZM65.291 18.1211H67.4272V6.29248H65.291V5.41357H74.6904V6.97607C74.9508 6.65869 75.2601 6.37793 75.6182 6.13379C75.9762 5.88151 76.3709 5.66992 76.8022 5.49902C77.2417 5.31999 77.7096 5.18571 78.2061 5.09619C78.7106 4.99854 79.2314 4.94971 79.7686 4.94971C80.3301 4.94971 80.8346 5.01888 81.2822 5.15723C81.7298 5.29557 82.1123 5.48682 82.4297 5.73096C82.7471 5.96696 82.9871 6.25179 83.1499 6.58545C83.3208 6.91097 83.4062 7.26497 83.4062 7.64746C83.4062 8.01367 83.3127 8.35954 83.1255 8.68506C82.9465 9.01058 82.6942 9.29541 82.3687 9.53955C82.0513 9.78369 81.6769 9.979 81.2456 10.1255C80.8143 10.2638 80.3545 10.333 79.8662 10.333C79.3779 10.333 78.9181 10.2638 78.4868 10.1255C78.0555 9.979 77.6771 9.78369 77.3516 9.53955C77.0342 9.29541 76.7819 9.01058 76.5947 8.68506C76.4076 8.35954 76.314 8.01367 76.314 7.64746C76.314 7.46029 76.3384 7.27718 76.3872 7.09814C76.4442 6.91097 76.5174 6.736 76.6069 6.57324C76.436 6.65462 76.2367 6.78076 76.0088 6.95166C75.7891 7.11442 75.5815 7.31787 75.3862 7.56201C75.1909 7.80615 75.0241 8.09098 74.8857 8.4165C74.7555 8.73389 74.6904 9.07975 74.6904 9.4541V18.1211H77.0586V19H65.291V18.1211ZM86.0674 6.29248H83.9312V5.41357H86.0674C86.8893 5.41357 87.6258 5.27523 88.2769 4.99854C88.936 4.7137 89.4935 4.34749 89.9492 3.8999C90.4131 3.44417 90.7671 2.93555 91.0112 2.37402C91.2554 1.8125 91.3774 1.25098 91.3774 0.689453H93.3306V5.41357H97.2612V6.29248H93.3306V13.812C93.3306 14.6828 93.3753 15.3949 93.4648 15.9482C93.5625 16.4935 93.6968 16.9207 93.8677 17.23C94.0467 17.5392 94.2542 17.7508 94.4902 17.8647C94.7344 17.9705 95.0029 18.0234 95.2959 18.0234C95.5807 18.0234 95.8574 17.9624 96.126 17.8403C96.3945 17.7101 96.6305 17.5067 96.834 17.23C97.0374 16.9451 97.2002 16.5789 97.3223 16.1313C97.4443 15.6756 97.5054 15.1182 97.5054 14.459C97.5054 14.3044 97.5013 14.1457 97.4932 13.9829C97.485 13.812 97.4728 13.637 97.4565 13.458H98.4819C98.5063 13.8649 98.5186 14.2352 98.5186 14.5688C98.5186 15.5861 98.3761 16.4162 98.0913 17.0591C97.8146 17.6938 97.4159 18.1903 96.895 18.5483C96.3742 18.9064 95.7394 19.1506 94.9907 19.2808C94.2502 19.411 93.416 19.4761 92.4883 19.4761C91.4466 19.4761 90.527 19.3743 89.7295 19.1709C88.932 18.9674 88.2606 18.646 87.7153 18.2065C87.1701 17.759 86.7591 17.1852 86.4824 16.4854C86.2057 15.7855 86.0674 14.9351 86.0674 13.9341V6.29248ZM109.09 10.272H120.015V11.7856H109.09V10.272ZM131.563 18.0356H133.699V2.65479H131.563V1.70264H144.246V2.65479H142.122V18.0356H144.246V19H131.563V18.0356ZM147.884 6.29248H145.748V5.41357H147.884C148.706 5.41357 149.442 5.27523 150.093 4.99854C150.752 4.7137 151.31 4.34749 151.766 3.8999C152.229 3.44417 152.583 2.93555 152.828 2.37402C153.072 1.8125 153.194 1.25098 153.194 0.689453H155.147V5.41357H159.078V6.29248H155.147V13.812C155.147 14.6828 155.192 15.3949 155.281 15.9482C155.379 16.4935 155.513 16.9207 155.684 17.23C155.863 17.5392 156.071 17.7508 156.307 17.8647C156.551 17.9705 156.819 18.0234 157.112 18.0234C157.397 18.0234 157.674 17.9624 157.942 17.8403C158.211 17.7101 158.447 17.5067 158.65 17.23C158.854 16.9451 159.017 16.5789 159.139 16.1313C159.261 15.6756 159.322 15.1182 159.322 14.459C159.322 14.3044 159.318 14.1457 159.31 13.9829C159.301 13.812 159.289 13.637 159.273 13.458H160.298C160.323 13.8649 160.335 14.2352 160.335 14.5688C160.335 15.5861 160.193 16.4162 159.908 17.0591C159.631 17.6938 159.232 18.1903 158.711 18.5483C158.191 18.9064 157.556 19.1506 156.807 19.2808C156.067 19.411 155.232 19.4761 154.305 19.4761C153.263 19.4761 152.343 19.3743 151.546 19.1709C150.748 18.9674 150.077 18.646 149.532 18.2065C148.986 17.759 148.576 17.1852 148.299 16.4854C148.022 15.7855 147.884 14.9351 147.884 13.9341V6.29248Z" fill="white"/>
</svg>
